<?xml version="1.0" standalone="no"?>
<svg viewBox="0 0 200 200" xmlns="http://www.w3.org/2000/svg">
  <path fill="#0F62FE" d="M30,-56.3C38.5,-47.1,44.7,-38.2,52.5,-28.9C60.4,-19.6,69.9,-9.8,71,0.7C72.2,11.1,65,22.3,59.8,36.1C54.6,50,51.3,66.6,41.7,72.7C32,78.7,16,74.2,1.2,72.2C-13.6,70.1,-27.2,70.4,-38,65C-48.8,59.6,-56.6,48.4,-63.1,36.6C-69.6,24.8,-74.6,12.4,-71.1,2C-67.6,-8.4,-55.6,-16.8,-48.5,-27.4C-41.3,-38,-39,-50.7,-31.7,-60.6C-24.4,-70.6,-12.2,-77.7,-0.7,-76.5C10.8,-75.2,21.5,-65.6,30,-56.3Z" transform="translate(100 100)" />
</svg>
